<svg width="24" height="24" viewBox="0 0 24 24" fill="none" xmlns="http://www.w3.org/2000/svg">
<path d="M10.5303 18.4697C10.8232 18.7626 10.8232 19.2375 10.5303 19.5304C10.2375 19.8233 9.76258 19.8233 9.46969 19.5304L2.46967 12.5303C2.38686 12.4475 2.32746 12.3502 2.29148 12.2465C2.27178 12.1897 2.2591 12.1311 2.25343 12.0719C2.25195 12.0564 2.25094 12.0409 2.25042 12.0253C2.24961 12.0011 2.24997 11.9769 2.25149 11.9527C2.25669 11.869 2.27562 11.789 2.30605 11.715C2.33763 11.638 2.38257 11.5652 2.44085 11.5001C2.45127 11.4885 2.46204 11.4772 2.47316 11.4662L9.46969 4.46967C9.76258 4.17678 10.2375 4.17678 10.5304 4.46967C10.8232 4.76256 10.8232 5.23744 10.5303 5.53033L4.8107 11.25L21 11.25C21.4142 11.25 21.75 11.5858 21.75 12C21.75 12.4142 21.4142 12.75 21 12.75L4.81062 12.75L10.5303 18.4697Z" fill="#00437a"/>
</svg>
